<svg width="600" height="600" xmlns="http://www.w3.org/2000/svg">
    <style>
        path {
            fill: black;
        }
        @media (prefers-color-scheme: dark) {
            path {
                fill: white;
            }
        }
    </style>

    <path id="svg_1" d="m476,44l-352,0c-25.6,0 -48,22.4 -48,48l0,416c0,25.6 22.4,48 48,48l352,0c25.6,0 48,-22.4 48,-48l0,-416c0,-25.6 -22.4,-48 -48,-48zm-272,435.2c0,6.4 -6.4,12.8 -12.8,12.8l-38.4,0c-6.4,0 -12.8,-6.4 -12.8,-12.8l0,-38.4c0,-6.4 6.4,-12.8 12.8,-12.8l38.4,0c6.4,0 12.8,6.4 12.8,12.8l0,38.4zm0,-128c0,6.4 -6.4,12.8 -12.8,12.8l-38.4,0c-6.4,0 -12.8,-6.4 -12.8,-12.8l0,-38.4c0,-6.4 6.4,-12.8 12.8,-12.8l38.4,0c6.4,0 12.8,6.4 12.8,12.8l0,38.4zm128,128c0,6.4 -6.4,12.8 -12.8,12.8l-38.4,0c-6.4,0 -12.8,-6.4 -12.8,-12.8l0,-38.4c0,-6.4 6.4,-12.8 12.8,-12.8l38.4,0c6.4,0 12.8,6.4 12.8,12.8l0,38.4zm0,-128c0,6.4 -6.4,12.8 -12.8,12.8l-38.4,0c-6.4,0 -12.8,-6.4 -12.8,-12.8l0,-38.4c0,-6.4 6.4,-12.8 12.8,-12.8l38.4,0c6.4,0 12.8,6.4 12.8,12.8l0,38.4zm128,128c0,6.4 -6.4,12.8 -12.8,12.8l-38.4,0c-6.4,0 -12.8,-6.4 -12.8,-12.8l0,-166.4c0,-6.4 6.4,-12.8 12.8,-12.8l38.4,0c6.4,0 12.8,6.4 12.8,12.8l0,166.4zm0,-256c0,6.4 -6.4,12.8 -12.8,12.8l-294.4,0c-6.4,0 -12.8,-6.4 -12.8,-12.8l0,-102.4c0,-6.4 6.4,-12.8 12.8,-12.8l294.4,0c6.4,0 12.8,6.4 12.8,12.8l0,102.4z" fill="currentColor"/>
</svg>
